<?xml version="1.0" ?><svg height="512" preserveAspectRatio="xMidYMid" viewBox="0 0 512 512" width="512" xmlns="http://www.w3.org/2000/svg" xmlns:xlink="http://www.w3.org/1999/xlink"><defs><style>
      .cls-1 {
        fill: #3498db;
      }

      .cls-2 {
        fill: #000;
        opacity: 0.3;
      }

      .cls-2, .cls-3 {
        fill-rule: evenodd;
      }

      .cls-3 {
        fill: #fff;
      }
    </style></defs><g><circle class="cls-1" cx="256" cy="256" r="256"/><path class="cls-2" d="M286.888,510.156 C276.762,511.373 266.454,512.000 256.000,512.000 C114.615,512.000 -0.000,397.385 -0.000,256.000 C-0.000,248.450 0.327,240.976 0.967,233.591 L157.709,137.820 L188.000,177.000 L255.000,129.000 L336.000,164.000 L379.000,258.000 L330.000,330.000 L375.680,355.765 L286.888,510.156 Z"/><path class="cls-3" d="M270.150,158.550 C258.969,158.550 264.305,173.293 269.098,173.293 C322.876,173.293 336.454,229.997 336.454,243.850 C336.454,251.309 350.136,251.297 350.136,244.903 C350.136,184.698 301.565,158.550 270.150,158.550 ZM260.678,142.753 C250.549,142.592 249.453,128.010 259.626,128.010 C297.430,128.010 379.604,159.557 379.604,253.328 C379.604,266.126 366.131,265.048 365.923,254.381 C364.325,172.331 294.223,143.286 260.678,142.753 ZM279.622,189.089 C268.973,189.089 270.595,202.780 277.517,202.780 C292.426,202.780 306.986,216.815 306.986,232.266 C306.986,239.193 319.615,241.311 319.615,233.319 C319.615,206.680 300.921,189.089 279.622,189.089 ZM313.300,283.868 C301.635,285.768 299.671,308.912 284.884,311.248 C259.114,315.320 197.805,263.277 202.794,229.107 C205.045,213.687 234.292,209.090 230.157,197.514 C225.759,185.203 195.100,146.598 188.059,137.488 C173.593,118.771 126.728,154.870 130.175,178.559 C132.585,195.121 163.228,255.679 209.108,301.770 C254.269,347.138 313.326,375.895 330.140,382.858 C352.873,392.274 399.156,340.507 375.395,324.938 C351.940,309.571 323.603,282.190 313.300,283.868 Z"/></g></svg>